<svg width="16" height="16" viewBox="0 0 16 16" fill="none" xmlns="http://www.w3.org/2000/svg">
<path d="M10.3971 7.75H9.19H4.75C4.61193 7.75 4.5 7.86193 4.5 8C4.5 8.13807 4.61193 8.25 4.75 8.25H9.19H10.3971L9.54355 9.10355L8.35355 10.2936C8.2561 10.391 8.2561 10.549 8.35355 10.6464C8.451 10.7439 8.609 10.7439 8.70645 10.6464L11.1762 8.17667L10.3971 7.75ZM10.3971 7.75L9.54355 6.89645M10.3971 7.75L9.54355 6.89645M9.54355 6.89645L8.35355 5.70645M9.54355 6.89645L8.35355 5.70645M8.35355 5.70645C8.2561 5.609 8.2561 5.451 8.35355 5.35355C8.451 5.2561 8.609 5.2561 8.70645 5.35355L11.1762 7.82333C11.1763 7.8234 11.1764 7.82347 11.1764 7.82353C11.1764 7.82354 11.1764 7.82355 11.1764 7.82355C11.2231 7.87041 11.2493 7.93385 11.2493 8C11.2493 8.06615 11.2231 8.12959 11.1764 8.17645L8.35355 5.70645ZM2.87348 13.1265C4.23311 14.4862 6.07718 15.25 8 15.25C9.92282 15.25 11.7669 14.4862 13.1265 13.1265C14.4862 11.7669 15.25 9.92282 15.25 8C15.25 6.07718 14.4862 4.23311 13.1265 2.87348C11.7669 1.51384 9.92282 0.75 8 0.75C6.07718 0.75 4.23311 1.51384 2.87348 2.87348C1.51384 4.23311 0.75 6.07718 0.75 8C0.75 9.92282 1.51384 11.7669 2.87348 13.1265ZM8 15.5C6.01088 15.5 4.10322 14.7098 2.6967 13.3033C1.29018 11.8968 0.5 9.98912 0.5 8C0.5 6.01088 1.29018 4.10322 2.6967 2.6967C4.10322 1.29018 6.01088 0.5 8 0.5C9.98912 0.5 11.8968 1.29018 13.3033 2.6967C14.7098 4.10322 15.5 6.01088 15.5 8C15.5 9.98912 14.7098 11.8968 13.3033 13.3033C11.8968 14.7098 9.98912 15.5 8 15.5Z" fill="#514040" stroke="black"/>
</svg>
